PathFileType	4	(X/Y/Z)	C:/Users/opensim2020/Desktop/walking_exp_matlab/subject02_walking07_straight_04.trc																																																																																																																																																				
DataRate	CameraRate	NumFrames	NumMarkers	Units	OrigDataRate	OrigDataStartFrame	OrigNumFrames																																																																																																																																																
100	100	7	50	mm	100	2746	207																																																																																																																																																
Frame#	Time	LFHD			RFHD			LBHD			RBHD			C7			T10			CLAV			STRN			RBAK			LSHO			LUPA			LELB			LFRM			LWRA			LWRB			LFIN			RSHO			RUPA			RELB			RFRM			RWRA			RWRB			RFIN			LASI			RASI			LPSI			RPSI			LTHI			LKNE			LTIB			LANK			LHEE			LTOE			RTHI			RKNE			RTIB			RANK			RHEE			RTOE			*39			*40			*41			*42			*43			*44			*45			*46			*47			*48			*49		
		X1	Y1	Z1	X2	Y2	Z2	X3	Y3	Z3	X4	Y4	Z4	X5	Y5	Z5	X6	Y6	Z6	X7	Y7	Z7	X8	Y8	Z8	X9	Y9	Z9	X10	Y10	Z10	X11	Y11	Z11	X12	Y12	Z12	X13	Y13	Z13	X14	Y14	Z14	X15	Y15	Z15	X16	Y16	Z16	X17	Y17	Z17	X18	Y18	Z18	X19	Y19	Z19	X20	Y20	Z20	X21	Y21	Z21	X22	Y22	Z22	X23	Y23	Z23	X24	Y24	Z24	X25	Y25	Z25	X26	Y26	Z26	X27	Y27	Z27	X28	Y28	Z28	X29	Y29	Z29	X30	Y30	Z30	X31	Y31	Z31	X32	Y32	Z32	X33	Y33	Z33	X34	Y34	Z34	X35	Y35	Z35	X36	Y36	Z36	X37	Y37	Z37	X38	Y38	Z38	X39	Y39	Z39	X40	Y40	Z40	X41	Y41	Z41	X42	Y42	Z42	X43	Y43	Z43	X44	Y44	Z44	X45	Y45	Z45	X46	Y46	Z46	X47	Y47	Z47	X48	Y48	Z48	X49	Y49	Z49	X50	Y50	Z50
																																																																																																																																																							
26	0.25	-490.96808	1724.95325	964.07477	-501.79337	1712.72009	1107.45544	-631.70209	1672.21338	949.88403	-654.64984	1660.61853	1092.36621	-705.56781	1529.12842	1033.23059	-756.25555	1252.5575	1051.34863	-565.95392	1459.54895	1020.05524	-512.58929	1290.50488	1045.27747	-760.95056	1358.17004	1110.31213	-649.80853	1491.85364	855.35339	-719.87231	1306.06958	782.26508	-763.18018	1173.77283	773.49664	-802.57568	1049.94336	752.91571	-790.28662	909.84698	762.08386	-838.37622	932.01208	742.96484	-845.84265	865.50812	733.19116	-624.94696	1509.94189	1215.52759	-607.92664	1329.02954	1321.82373	-546.99115	1196.49719	1355.40979	-472.76959	1102.32141	1376.88135	-380.4761	1004.24438	1358.00061	-417.49554	985.85645	1397.00574	-357.21939	945.51825	1398.19653	-522.35455	989.94202	934.21051	-542.367	976.34021	1188.80505	-735.9646	1034.89294	997.73828	-749.99274	1038.40234	1111.81494	-527.13367	688.45026	855.4068	-483.64816	495.2619	880.72339	-488.76849	301.51251	879.83777	-417.67688	86.59351	893.75238	-434.57309	50.80683	950.57239	-264.97534	86.20802	861.17474	-655.78693	673.34052	1236.56494	-686.22766	464.91196	1191.59912	-755.65637	288.55725	1191.5885	-799.23114	99.95574	1147.97559	-835.94049	47.08835	1089.57788	-653.93372	40.85983	1176.28528	-584.59296	1810.15503	1045.65857	-2845.9187	1034.13916	3357.48633	NaN	NaN	NaN	NaN	NaN	NaN	NaN	NaN	NaN	NaN	NaN	NaN	NaN	NaN	NaN	NaN	NaN	NaN	NaN	NaN	NaN	NaN	NaN	NaN	NaN	NaN	NaN
27	0.26	-482.39139	1723.95825	963.28033	-493.13428	1711.66736	1106.78259	-622.87982	1670.78809	949.24652	-645.92664	1659.25208	1092.22839	-696.30713	1527.68567	1032.53162	-747.33539	1251.23645	1050.25659	-556.6123	1458.08325	1019.36737	-503.43704	1289.0022	1044.82214	-751.94824	1356.78979	1109.30408	-640.5025	1490.49866	854.73126	-712.63037	1305.57898	782.29761	-757.23053	1173.77039	773.79034	-798.18719	1050.40637	753.25775	-787.50488	910.224	761.74982	-835.81818	933.04053	743.45374	-844.13055	866.75629	733.50806	-615.98785	1508.39783	1214.91492	-598.0343	1327.67798	1321.24976	-535.64398	1195.85193	1355.15674	-459.88541	1102.73523	1376.20728	-366.06641	1006.31055	1357.28088	-402.72476	987.21423	1396.30042	-341.74408	948.02246	1397.41675	-512.8017	987.87689	934.14917	-534.41815	975.13074	1188.83313	-726.81866	1033.20032	996.5802	-741.86353	1036.95776	1110.43506	-519.612	686.64337	854.71771	-473.56024	493.75436	880.1936	-471.32141	300.17313	877.39514	-392.70895	87.74484	890.36316	-409.24612	51.26577	946.35168	-239.26913	91.52291	860.99823	-650.42987	672.61639	1236.38599	-682.61554	464.29916	1191.28308	-753.7439	288.69293	1191.23743	-798.85278	100.3736	1147.74768	-835.89874	47.66081	1089.13879	-653.97717	40.80949	1176.40723	-576.19348	1808.99146	1045.01721	-2845.20508	1033.99353	3360.17725	NaN	NaN	NaN	NaN	NaN	NaN	NaN	NaN	NaN	NaN	NaN	NaN	NaN	NaN	NaN	NaN	NaN	NaN	NaN	NaN	NaN	NaN	NaN	NaN	NaN	NaN	NaN
28	0.27	-473.54327	1723.08679	962.76294	-484.3927	1710.56616	1106.02051	-614.00629	1669.30066	948.47925	-636.92065	1657.56592	1091.15234	-686.9635	1526.21631	1031.64331	-738.35309	1249.90686	1049.05505	-547.13715	1456.41492	1018.64447	-494.25787	1287.41223	1044.276	-742.92169	1355.38635	1108.21472	-631.0083	1489.02917	853.91064	-704.85358	1304.89917	782.24207	-750.81079	1173.66357	773.82587	-793.45605	1050.74951	753.59491	-784.28827	910.30939	761.6001	-832.35388	933.73218	743.97858	-841.78101	867.8877	733.87933	-607.05249	1506.97083	1214.17712	-588.29578	1326.31787	1320.45581	-524.56042	1195.26392	1354.95898	-447.37482	1103.04626	1375.578	-351.89288	1008.4129	1356.70056	-388.41238	988.38885	1395.38892	-326.75903	950.37042	1396.48694	-503.11755	985.86414	934.11908	-526.4693	973.79095	1188.84265	-717.72223	1031.49927	995.35303	-733.57874	1035.3562	1108.97693	-511.25504	685.1792	854.08386	-463.36484	492.33551	879.4884	-454.54175	299.24734	874.64905	-369.142	89.35619	886.89362	-385.94785	51.97567	942.30676	-215.13274	96.36726	861.09564	-644.93262	671.88202	1236.17407	-678.90778	463.69537	1190.94116	-751.82312	288.89124	1190.91296	-798.48096	100.86746	1147.46021	-835.76093	48.05086	1088.71313	-654.0354	40.86415	1176.57898	-567.77429	1807.52466	1044.422	-2845.77515	1034.20105	3357.5874	NaN	NaN	NaN	NaN	NaN	NaN	NaN	NaN	NaN	NaN	NaN	NaN	NaN	NaN	NaN	NaN	NaN	NaN	NaN	NaN	NaN	NaN	NaN	NaN	NaN	NaN	NaN
29	0.28	-464.86639	1721.89832	961.81506	-475.646	1709.43848	1105.15234	-605.02441	1667.75098	947.49341	-627.98273	1655.84375	1090.11121	-677.53503	1524.67236	1030.61755	-729.21808	1248.52686	1047.78748	-537.64215	1454.828	1017.83185	-485.01877	1285.78857	1043.70776	-733.81439	1353.87866	1106.86182	-621.29297	1487.51099	853.04706	-696.88794	1304.02686	781.91968	-743.88428	1173.1748	774.06042	-788.0752	1050.98938	754.17645	-780.5412	910.31219	761.41705	-828.49945	934.50916	744.30975	-838.78339	868.61688	734.18079	-597.86401	1505.28625	1213.30566	-578.62756	1324.85828	1319.6925	-513.71375	1194.20972	1354.17383	-435.16739	1103.21912	1374.76709	-338.43381	1009.96899	1355.48914	-374.50552	989.4162	1394.31238	-312.17361	952.60059	1395.5127	-493.3006	984.03131	934.2406	-518.42188	972.41132	1188.92517	-708.83813	1029.89478	994.13495	-725.10034	1033.67651	1107.40271	-502.69775	683.51636	853.24219	-453.09241	490.99841	878.65063	-438.65869	298.53564	871.92072	-347.45166	90.9733	883.84705	-364.36346	52.56909	938.1723	-192.87621	100.58269	861.06274	-639.34418	671.11377	1235.89355	-674.96472	463.09705	1190.60608	-749.7829	289.15811	1190.61951	-798.11139	101.48047	1147.32043	-835.65137	48.82191	1088.54199	-653.94489	40.72996	1176.73608	-559.34137	1806.10034	1043.51379	-2845.88379	1034.03955	3357.37866	NaN	NaN	NaN	NaN	NaN	NaN	NaN	NaN	NaN	NaN	NaN	NaN	NaN	NaN	NaN	NaN	NaN	NaN	NaN	NaN	NaN	NaN	NaN	NaN	NaN	NaN	NaN
30	0.29	-456.02158	1720.86951	960.81036	-466.80176	1708.32043	1104.23425	-595.93536	1666.29553	946.59241	-618.91699	1654.18567	1089.02222	-668.09576	1523.14319	1029.46826	-719.97766	1247.14661	1046.43433	-528.11932	1453.21106	1016.8858	-475.75781	1284.15979	1043.0896	-724.71356	1352.43872	1105.48926	-611.45679	1485.97021	851.94574	-688.30627	1302.99646	781.49005	-736.62378	1172.67871	773.83685	-782.12592	1050.94019	753.98535	-775.85083	910.21649	761.29938	-823.63287	934.95807	744.67871	-835.23535	869.23853	734.47626	-588.6701	1503.71655	1212.32666	-569.17657	1322.99512	1317.97632	-503.13773	1193.35791	1353.58411	-423.32248	1103.24402	1373.84009	-325.1207	1011.67139	1354.66077	-361.07806	990.23859	1393.02942	-298.1972	954.64648	1394.37329	-483.31232	982.45831	934.32776	-510.79297	970.71967	1189.28552	-700.34564	1028.51575	993.10767	-716.43835	1031.90198	1105.76941	-493.1282	682.28174	852.58313	-442.64081	489.7179	877.81134	-423.62637	297.89874	869.33258	-327.50644	92.66711	880.73529	-344.26749	53.57501	935.25421	-172.62256	104.06187	860.7616	-633.68878	670.28638	1235.2417	-670.72058	462.49774	1190.24023	-747.52258	289.43478	1190.28906	-797.69531	102.19534	1147.172	-835.45203	49.54174	1088.28113	-653.99811	40.46802	1176.71753	-550.86407	1804.82678	1042.58386	-2845.90723	1034.09656	3357.3208	NaN	NaN	NaN	NaN	NaN	NaN	NaN	NaN	NaN	NaN	NaN	NaN	NaN	NaN	NaN	NaN	NaN	NaN	NaN	NaN	NaN	NaN	NaN	NaN	NaN	NaN	NaN
31	0.3	-446.59094	1719.67371	960.14294	-457.8522	1707.21924	1103.13599	-586.77911	1664.6416	945.35974	-609.60974	1652.36279	1087.34802	-658.6015	1521.66418	1028.21826	-710.69635	1245.80933	1045.02966	-518.61505	1451.76746	1015.83014	-466.39801	1282.53125	1042.41162	-715.52551	1351.02051	1103.85547	-601.42383	1484.2959	850.83612	-679.2251	1301.60315	780.98639	-728.58746	1171.87415	773.94208	-775.61237	1050.78271	754.21313	-770.79474	909.7901	760.99817	-818.40442	935.09247	744.71649	-830.87988	869.46008	734.6817	-579.46204	1502.24084	1211.25842	-559.79785	1321.37463	1316.67029	-492.80814	1192.27649	1352.68726	-411.77399	1103.07336	1372.68433	-312.52417	1012.8501	1353.12549	-348.10095	990.867	1391.56299	-284.64655	956.36462	1393.03442	-473.25644	981.04834	934.60632	-502.54636	968.90265	1189.4502	-688.88129	1026.10352	990.68524	-707.58417	1030.11987	1104.05359	-482.40985	681.16718	851.90887	-431.98996	488.53271	876.94281	-409.47156	297.25674	866.85724	-309.85864	93.8419	877.99231	-326.73163	54.36325	932.20544	-154.53001	106.73158	860.25806	-627.78491	669.48071	1234.71338	-666.21545	461.84286	1189.94568	-745.01624	289.74207	1189.89014	-797.15479	103.04676	1147.00793	-835.1344	50.76883	1088.19714	-653.9541	40.55313	1176.92053	-542.29535	1803.29663	1041.3324	-2845.19678	1033.98206	3360.50854	NaN	NaN	NaN	NaN	NaN	NaN	NaN	NaN	NaN	NaN	NaN	NaN	NaN	NaN	NaN	NaN	NaN	NaN	NaN	NaN	NaN	NaN	NaN	NaN	NaN	NaN	NaN
32	0.31	-437.92383	1718.76782	958.57593	-448.83298	1706.1272	1101.99255	-577.39819	1662.95715	944.21063	-600.57684	1650.90881	1086.52612	-649.12787	1520.20667	1026.85779	-701.23743	1244.46313	1043.50244	-508.98425	1450.23901	1014.80792	-456.95569	1280.95984	1041.5835	-706.34747	1349.646	1102.33826	-591.39966	1482.76331	849.41534	-670.08978	1300.39709	780.09607	-720.27527	1170.85889	773.56586	-768.42487	1050.33093	753.85394	-764.81403	909.13318	760.80103	-812.05664	934.92419	744.72882	-825.51062	869.54883	734.88715	-570.13666	1500.66064	1210.12073	-550.4881	1319.78357	1315.23474	-482.70715	1190.92627	1351.36047	-400.60052	1102.78442	1371.41016	-300.11115	1014.06116	1351.91479	-335.61127	991.26227	1389.9126	-271.737	957.95569	1391.56091	-463.02612	979.90753	934.76007	-493.84744	967.56421	1189.37402	-679.35907	1024.60693	989.14301	-698.54565	1028.38086	1102.2854	-470.74435	680.37439	851.36322	-420.80106	487.5434	876.01544	-396.37088	296.92398	864.69397	-294.51306	94.24213	875.79181	-311.8371	54.77246	929.08954	-138.80728	108.45121	859.54675	-621.69073	668.73151	1234.04688	-661.43085	461.40073	1189.62732	-742.24664	290.12027	1189.44031	-796.50568	104.05919	1146.8739	-834.85193	52.03633	1087.93555	-653.90253	40.47593	1177.06604	-533.50854	1801.83911	1040.1748	-2845.10669	1033.90576	3360.31909	NaN	NaN	NaN	NaN	NaN	NaN	NaN	NaN	NaN	NaN	NaN	NaN	NaN	NaN	NaN	NaN	NaN	NaN	NaN	NaN	NaN	NaN	NaN	NaN	NaN	NaN	NaN
